<svg xmlns="http://www.w3.org/2000/svg" width="23.647" height="31.529" viewBox="0 0 23.647 31.529">
  <path id="AwardIcon" d="M5.979,22.323c-.535-.535-.256-.384-1.547-.73a4.443,4.443,0,0,1-1.566-.82L.072,27.623a.985.985,0,0,0,.95,1.357l3.245-.124L6.5,31.213a.985.985,0,0,0,1.628-.305l3.205-7.859a4.419,4.419,0,0,1-5.352-.726Zm17.592,5.3-2.794-6.85a4.433,4.433,0,0,1-1.566.82c-1.3.347-1.013.2-1.547.73a4.42,4.42,0,0,1-5.353.726l3.205,7.859a.985.985,0,0,0,1.628.305l2.232-2.357,3.245.124A.986.986,0,0,0,23.571,27.623Zm-7.377-6.694c.941-.958,1.049-.875,2.389-1.24A2.5,2.5,0,0,0,20.335,17.9a3.957,3.957,0,0,1,1.6-2.817,2.554,2.554,0,0,0,.642-2.437,4,4,0,0,1,0-3.253,2.554,2.554,0,0,0-.642-2.437,3.959,3.959,0,0,1-1.6-2.817,2.5,2.5,0,0,0-1.753-1.785A3.86,3.86,0,0,1,15.814.731,2.45,2.45,0,0,0,13.419.078a3.811,3.811,0,0,1-3.2,0A2.449,2.449,0,0,0,7.829.731,3.858,3.858,0,0,1,5.061,2.358,2.5,2.5,0,0,0,3.308,4.142a3.956,3.956,0,0,1-1.6,2.817A2.553,2.553,0,0,0,1.068,9.4a4,4,0,0,1,0,3.253,2.556,2.556,0,0,0,.642,2.438,3.957,3.957,0,0,1,1.6,2.817,2.5,2.5,0,0,0,1.753,1.785c1.378.376,1.481.317,2.388,1.24a2.447,2.447,0,0,0,3.063.358,2.443,2.443,0,0,1,2.619,0A2.446,2.446,0,0,0,16.193,20.929ZM6.012,10.828a5.81,5.81,0,1,1,5.809,5.913A5.862,5.862,0,0,1,6.012,10.828Z" transform="translate(0.002 0.008)" fill="#fff"/>
</svg>
