<svg xmlns="http://www.w3.org/2000/svg" width="22.965" height="26.246" viewBox="0 0 22.965 26.246">
  <path id="bell" d="M22.523,18.571c-.99-1.064-2.843-2.665-2.843-7.909a8.1,8.1,0,0,0-6.558-7.954V1.64a1.639,1.639,0,1,0-3.279,0V2.709a8.1,8.1,0,0,0-6.558,7.954c0,5.244-1.853,6.845-2.843,7.909A1.6,1.6,0,0,0,0,19.684a1.642,1.642,0,0,0,1.645,1.64H21.319a1.641,1.641,0,0,0,1.645-1.64,1.6,1.6,0,0,0-.441-1.113Zm-19.062.293c1.088-1.434,2.277-3.81,2.283-8.172,0-.01,0-.019,0-.03a5.741,5.741,0,1,1,11.483,0c0,.01,0,.019,0,.03.006,4.362,1.195,6.739,2.283,8.172Zm8.021,7.382a3.28,3.28,0,0,0,3.279-3.281H8.2A3.28,3.28,0,0,0,11.482,26.246Z" transform="translate(0.001)" />
</svg>
