<svg xmlns="http://www.w3.org/2000/svg" width="24.162" height="24.162" viewBox="0 0 24.162 24.162">
  <path id="coins" d="M0,19.127v2.015c0,1.666,4.058,3.02,9.061,3.02s9.061-1.354,9.061-3.02V19.127c-1.949,1.373-5.512,2.015-9.061,2.015S1.949,20.5,0,19.127ZM15.1,6.04c5,0,9.061-1.354,9.061-3.02S20.1,0,15.1,0,6.04,1.354,6.04,3.02,10.1,6.04,15.1,6.04ZM0,14.176v2.435c0,1.666,4.058,3.02,9.061,3.02s9.061-1.354,9.061-3.02V14.176c-1.949,1.6-5.517,2.435-9.061,2.435S1.949,15.781,0,14.176Zm19.632.519c2.7-.524,4.53-1.5,4.53-2.614V10.066a11.589,11.589,0,0,1-4.53,1.628ZM9.061,7.551C4.058,7.551,0,9.24,0,11.326S4.058,15.1,9.061,15.1s9.061-1.689,9.061-3.775S14.063,7.551,9.061,7.551ZM19.41,10.207c2.831-.51,4.752-1.51,4.752-2.657V5.536c-1.675,1.185-4.554,1.822-7.584,1.973A5.285,5.285,0,0,1,19.41,10.207Z" />
</svg>
