<svg xmlns="http://www.w3.org/2000/svg" width="25" height="25" viewBox="0 0 25 25">
  <path id="history" d="M33,20.476a12.5,12.5,0,0,1-20.345,9.756,1.209,1.209,0,0,1-.093-1.795l.568-.568a1.212,1.212,0,0,1,1.607-.1,9.275,9.275,0,1,0-.592-14.027L16.7,16.3a.806.806,0,0,1-.57,1.377H8.806A.806.806,0,0,1,8,16.871V9.544a.806.806,0,0,1,1.377-.57l2.489,2.489A12.5,12.5,0,0,1,33,20.476Zm-9.119,3.971.5-.637a1.21,1.21,0,0,0-.212-1.7l-2.051-1.6v-5.26a1.21,1.21,0,0,0-1.21-1.21H20.1a1.21,1.21,0,0,0-1.21,1.21V22.1l3.3,2.564A1.21,1.21,0,0,0,23.881,24.447Z" transform="translate(-8 -8)" />
</svg>
