<svg xmlns="http://www.w3.org/2000/svg" width="22" height="16.766" viewBox="0 0 22 16.766">
  <path id="lognout" d="M21.7,73.1l-7.334,7.334a1.049,1.049,0,0,1-1.79-.742V75.5H6.635a1.045,1.045,0,0,1-1.048-1.048V70.266a1.045,1.045,0,0,1,1.048-1.048h5.937V65.027a1.05,1.05,0,0,1,1.79-.742L21.7,71.619A1.057,1.057,0,0,1,21.7,73.1ZM8.381,80.219V78.472a.525.525,0,0,0-.524-.524H4.191a1.4,1.4,0,0,1-1.4-1.4V68.17a1.4,1.4,0,0,1,1.4-1.4H7.858a.525.525,0,0,0,.524-.524V64.5a.525.525,0,0,0-.524-.524H4.191A4.192,4.192,0,0,0,0,68.17v8.381a4.192,4.192,0,0,0,4.191,4.191H7.858A.525.525,0,0,0,8.381,80.219Z" transform="translate(0 -63.979)" />
</svg>
