<svg xmlns="http://www.w3.org/2000/svg" width="32" height="22.4" viewBox="0 0 32 22.4">
  <path id="members" d="M4.8,41.6a3.2,3.2,0,1,0-3.2-3.2A3.2,3.2,0,0,0,4.8,41.6Zm22.4,0A3.2,3.2,0,1,0,24,38.4,3.2,3.2,0,0,0,27.2,41.6Zm1.6,1.6H25.6a3.191,3.191,0,0,0-2.255.93A7.314,7.314,0,0,1,27.1,49.6h3.3A1.6,1.6,0,0,0,32,48V46.4A3.2,3.2,0,0,0,28.8,43.2ZM16,43.2a5.6,5.6,0,1,0-5.6-5.6A5.6,5.6,0,0,0,16,43.2Zm3.84,1.6h-.415a7.732,7.732,0,0,1-6.85,0H12.16A5.761,5.761,0,0,0,6.4,50.56V52a2.4,2.4,0,0,0,2.4,2.4H23.2A2.4,2.4,0,0,0,25.6,52V50.56A5.761,5.761,0,0,0,19.84,44.8ZM8.655,44.13A3.191,3.191,0,0,0,6.4,43.2H3.2A3.2,3.2,0,0,0,0,46.4V48a1.6,1.6,0,0,0,1.6,1.6H4.895a7.332,7.332,0,0,1,3.76-5.47Z" transform="translate(0 -32)" />
</svg>
