<svg xmlns="http://www.w3.org/2000/svg" width="26" height="34.461" viewBox="0 0 26 34.461">
  <path id="scoreboard" d="M22.75,4.308H17.333a4.333,4.333,0,0,0-8.667,0H3.25A3.241,3.241,0,0,0,0,7.538V31.23a3.241,3.241,0,0,0,3.25,3.231h19.5A3.241,3.241,0,0,0,26,31.23V7.538A3.241,3.241,0,0,0,22.75,4.308ZM13,2.692a1.615,1.615,0,1,1-1.625,1.615A1.616,1.616,0,0,1,13,2.692Zm9.75,28.134a.406.406,0,0,1-.406.4H3.656a.406.406,0,0,1-.406-.4V7.942a.406.406,0,0,1,.406-.4H6.5V9.961a.812.812,0,0,0,.813.808H18.688a.812.812,0,0,0,.813-.808V7.538h2.844a.406.406,0,0,1,.406.4Z" />
</svg>
