<svg xmlns="http://www.w3.org/2000/svg" width="25.072" height="27.848" viewBox="0 0 25.072 27.848">
  <path id="scoreboard" d="M21.938,3.776h-9.4c0-2.083,2.3,0,0,0s0-2.083,0,0h-9.4A3,3,0,0,0,0,6.608V27.376a3,3,0,0,0,3.134,2.832h18.8a3,3,0,0,0,3.134-2.832V6.608A3,3,0,0,0,21.938,3.776Zm-9.4-1.416A1.494,1.494,0,0,1,14.1,3.776H10.969A1.494,1.494,0,0,1,12.536,2.36Zm9.4,24.662a.375.375,0,0,1-.392.354H3.526a.375.375,0,0,1-.392-.354V6.962a.375.375,0,0,1,.392-.354H6.268V8.732a.751.751,0,0,0,.783.708H18.02a.751.751,0,0,0,.783-.708V6.608h2.742a.375.375,0,0,1,.392.354Z" transform="translate(0 -2.36)" />
</svg>
