<svg xmlns="http://www.w3.org/2000/svg" width="32" height="33.427" viewBox="0 0 32 33.427">
  <path id="settings" d="M50.235,28.829l-2.871-1.658a12.981,12.981,0,0,0,0-4.731l2.871-1.658a.814.814,0,0,0,.371-.944,16.785,16.785,0,0,0-3.686-6.375.811.811,0,0,0-1-.155l-2.871,1.658a12.719,12.719,0,0,0-4.1-2.366V9.292A.807.807,0,0,0,38.32,8.5a16.942,16.942,0,0,0-7.359,0,.807.807,0,0,0-.634.789v3.316a13.12,13.12,0,0,0-4.1,2.366l-2.864-1.658a.8.8,0,0,0-1,.155,16.684,16.684,0,0,0-3.686,6.375.806.806,0,0,0,.371.944l2.871,1.658a12.981,12.981,0,0,0,0,4.731l-2.871,1.658a.814.814,0,0,0-.371.944,16.785,16.785,0,0,0,3.686,6.375.811.811,0,0,0,1,.155l2.871-1.658a12.719,12.719,0,0,0,4.1,2.366v3.316a.807.807,0,0,0,.634.789,16.942,16.942,0,0,0,7.359,0,.807.807,0,0,0,.633-.789V37.018a13.12,13.12,0,0,0,4.1-2.366l2.871,1.658a.8.8,0,0,0,1-.155,16.684,16.684,0,0,0,3.686-6.375A.832.832,0,0,0,50.235,28.829ZM34.64,30.2a5.392,5.392,0,1,1,5.392-5.392A5.4,5.4,0,0,1,34.64,30.2Z" transform="translate(-18.644 -8.099)"/>
</svg>
