<svg xmlns="http://www.w3.org/2000/svg" width="32.496" height="26" viewBox="0 0 32.496 26">
  <path id="userDelete" d="M29.941,12.187l2.316-2.316a.818.818,0,0,0,0-1.158L31.1,7.556a.818.818,0,0,0-1.158,0L27.625,9.872,25.309,7.556a.818.818,0,0,0-1.158,0L22.994,8.714a.818.818,0,0,0,0,1.158l2.316,2.316L22.994,14.5a.818.818,0,0,0,0,1.158l1.158,1.158a.818.818,0,0,0,1.158,0L27.625,14.5l2.316,2.316a.818.818,0,0,0,1.158,0l1.158-1.158a.818.818,0,0,0,0-1.158ZM11.375,13a6.5,6.5,0,1,0-6.5-6.5A6.5,6.5,0,0,0,11.375,13Zm4.55,1.625h-.848a8.84,8.84,0,0,1-7.4,0H6.825A6.827,6.827,0,0,0,0,21.45v2.112A2.438,2.438,0,0,0,2.437,26H20.312a2.438,2.438,0,0,0,2.437-2.437V21.45A6.827,6.827,0,0,0,15.925,14.625Z" fill="#fff"/>
</svg>
