<svg xmlns="http://www.w3.org/2000/svg" width="21.235" height="24.269" viewBox="0 0 21.235 24.269">
  <path id="user" d="M14.865,14.41c-1.36,0-2.015.758-4.247.758s-2.882-.758-4.247-.758A6.372,6.372,0,0,0,0,20.78v1.213a2.276,2.276,0,0,0,2.275,2.275H18.96a2.276,2.276,0,0,0,2.275-2.275V20.78A6.372,6.372,0,0,0,14.865,14.41Zm4.1,7.584H2.275V20.78a4.1,4.1,0,0,1,4.1-4.1c.692,0,1.815.758,4.247.758,2.451,0,3.55-.758,4.247-.758a4.1,4.1,0,0,1,4.1,4.1Zm-8.342-8.342A6.826,6.826,0,1,0,3.792,6.826,6.827,6.827,0,0,0,10.618,13.651Zm0-11.376a4.55,4.55,0,1,1-4.55,4.55A4.558,4.558,0,0,1,10.618,2.275Z" />
</svg>
