<svg xmlns="http://www.w3.org/2000/svg" width="37.128" height="29.702" viewBox="0 0 37.128 29.702">
  <path id="userAdd" d="M36.2,12.067H32.487V8.354a.931.931,0,0,0-.928-.928H29.7a.931.931,0,0,0-.928.928v3.713H25.061a.931.931,0,0,0-.928.928v1.856a.931.931,0,0,0,.928.928h3.713v3.713a.931.931,0,0,0,.928.928h1.856a.931.931,0,0,0,.928-.928V15.779H36.2a.931.931,0,0,0,.928-.928V12.995A.931.931,0,0,0,36.2,12.067Zm-23.2,2.785A7.426,7.426,0,1,0,5.569,7.426,7.425,7.425,0,0,0,12.995,14.851Zm5.2,1.856h-.969a10.1,10.1,0,0,1-8.458,0H7.8A7.8,7.8,0,0,0,0,24.5v2.413A2.785,2.785,0,0,0,2.785,29.7H23.2a2.785,2.785,0,0,0,2.785-2.785V24.5A7.8,7.8,0,0,0,18.193,16.708Z" fill="#fff"/>
</svg>
